# xmcd
#
# Track frame offsets:
#	150
#	14235
#	32668
#	58167
#	81043
#	105030
#	118823
#	135029
#	153960
#	175323
#
# Disc length: 2626 seconds
#
# Revision: 1
# Processed by: cddbd v1.4PL0 Copyright (c) Steve Scherf et al.
# Submitted via: audiograbber 1.81.03
#
DISCID=740a400a
DTITLE=Hip Linkchain - Change My Blues
DYEAR=1900
DGENRE=Blues
TTITLE0=Cold Chills
TTITLE1=Change My Blues
TTITLE2=Shaggy Hound
TTITLE3=Call Muddy Waters
TTITLE4=Walking Blues
TTITLE5=Mad and Evil
TTITLE6=Walking From Door to Door
TTITLE7=That Will Never Do
TTITLE8=All My Whole Life
TTITLE9=Night Life
EXTD=
EXTT0=
EXTT1=
EXTT2=
EXTT3=
EXTT4=
EXTT5=
EXTT6=
EXTT7=
EXTT8=
EXTT9=
PLAYORDER=
